<!DOCTYPE svg PUBLIC "-//W3C//DTD SVG 20010904//EN" "http://www.w3.org/TR/2001/REC-SVG-20010904/DTD/svg10.dtd">
<svg version="1.0" xmlns="http://www.w3.org/2000/svg" width="300px" height="300px" viewBox="0 0 3000 3000" preserveAspectRatio="xMidYMid meet">
<g id="layer101" fill="#004080" stroke="none">
 <path d="M1255 2914 c-322 -54 -635 -232 -843 -477 -175 -206 -285 -444 -327 -702 -20 -119 -19 -365 0 -478 46 -259 154 -490 327 -694 211 -249 524 -425 853 -478 116 -19 354 -19 470 0 395 64 754 298 970 633 153 238 225 487 225 782 0 234 -39 417 -130 607 -208 436 -598 733 -1065 808 -112 18 -370 18 -480 -1z"/>
 </g>
<g id="layer102" fill="#e81018" stroke="none">
 <path d="M1300 2920 c-30 -5 -86 -17 -125 -27 l-70 -18 -5 -461 -5 -462 -330 238 c-181 132 -336 239 -342 239 -7 1 -33 -25 -58 -56 -47 -60 -165 -252 -165 -269 0 -5 53 -43 118 -84 l117 -75 -150 -5 -150 -5 -29 -110 c-28 -104 -29 -121 -30 -320 -1 -196 1 -217 26 -315 43 -169 36 -160 115 -160 l68 0 -52 -37 c-29 -20 -53 -42 -53 -48 0 -16 74 -158 111 -212 64 -95 133 -183 142 -183 5 0 157 103 338 229 l329 230 2 -442 3 -442 90 -24 c79 -20 115 -23 285 -25 126 -1 221 4 267 12 l73 14 2 453 3 454 362 -230 c200 -126 368 -229 376 -229 17 0 110 123 175 231 29 48 52 89 52 92 0 3 -53 39 -117 79 l-118 73 148 3 148 3 10 27 c6 15 22 74 37 132 25 98 27 119 26 315 -1 199 -2 216 -30 320 l-29 110 -145 5 -145 5 113 78 c61 43 112 81 112 84 0 29 -218 348 -251 369 -5 3 -170 -114 -367 -261 l-357 -266 -3 475 -2 474 -63 12 c-77 15 -383 22 -457 10z"/>
 </g>
<g id="layer103" fill="#fffefe" stroke="none">
 <path d="M1695 2908 c-3 -7 -4 -260 -3 -563 l3 -550 603 -3 604 -2 -7 32 c-4 18 -13 51 -19 73 l-12 40 -144 5 -145 5 113 78 c61 43 112 82 112 85 0 4 -9 22 -20 40 l-20 33 -155 -106 -155 -106 -101 3 -101 3 226 154 c141 97 222 159 217 165 -51 71 -143 186 -148 186 -3 0 -166 -119 -362 -265 l-356 -266 -3 475 -2 474 -43 7 c-23 3 -50 9 -60 11 -9 3 -19 -1 -22 -8z"/>
 <path d="M1170 2891 l-65 -16 -5 -461 -5 -462 -325 235 c-179 129 -331 237 -338 240 -13 5 -61 -32 -51 -40 2 -2 134 -97 293 -210 l288 -207 -111 0 -112 0 -217 154 c-119 85 -220 152 -223 150 -10 -6 -99 -159 -99 -170 0 -5 53 -43 118 -84 l117 -75 -150 -5 -149 -5 -12 -40 c-6 -22 -15 -55 -19 -73 l-7 -32 574 2 573 3 3 549 c1 303 -1 553 -5 557 -5 4 -37 -1 -73 -10z"/>
 <path d="M105 1178 c4 -18 15 -58 24 -88 l17 -55 67 -5 67 -5 -50 -34 c-27 -19 -50 -36 -50 -39 0 -18 26 -72 34 -72 6 0 56 32 112 70 l102 70 116 0 c64 0 116 -4 116 -8 0 -4 -81 -63 -180 -131 -99 -68 -183 -127 -186 -132 -7 -11 8 -36 79 -131 28 -38 55 -68 60 -68 5 0 157 103 338 229 l329 230 2 -442 3 -442 65 -16 c36 -9 68 -14 73 -10 4 4 6 254 5 557 l-3 549 -573 3 -574 2 7 -32z"/>
 <path d="M1697 1203 c-10 -9 -9 -1111 1 -1116 4 -3 33 0 64 5 l58 10 2 453 3 454 362 -230 c200 -126 369 -229 377 -229 13 0 52 48 44 54 -2 2 -145 94 -318 206 -173 111 -322 209 -330 216 -12 12 3 14 100 14 l115 0 230 -153 c127 -85 242 -161 257 -171 l26 -17 51 84 c28 47 51 87 51 90 0 3 -53 39 -117 79 l-118 73 150 5 149 5 17 55 c9 30 20 70 24 88 l7 32 -600 0 c-329 0 -602 -3 -605 -7z"/>
 </g>

</svg>