<!DOCTYPE svg PUBLIC "-//W3C//DTD SVG 20010904//EN" "http://www.w3.org/TR/2001/REC-SVG-20010904/DTD/svg10.dtd">
<svg version="1.0" xmlns="http://www.w3.org/2000/svg" width="180px" height="49px" viewBox="0 0 1800 490" preserveAspectRatio="xMidYMid meet">
<g id="layer101" fill="#fde428" stroke="none">
 <path d="M44 476 c-3 -8 -4 -27 -2 -43 3 -24 8 -28 40 -31 32 -3 40 1 49 21 17 38 -3 67 -47 67 -21 0 -37 -6 -40 -14z m55 -43 c-15 -18 -34 -1 -25 22 5 14 9 15 21 5 12 -10 13 -16 4 -27z"/>
 <path d="M182 451 c-15 -49 -15 -51 3 -51 8 0 15 7 15 15 0 8 5 15 10 15 6 0 10 -7 10 -15 0 -23 30 -18 40 8 l9 22 0 -22 c1 -16 7 -23 20 -23 19 0 19 2 4 45 -16 49 -38 58 -53 23 l-9 -23 0 23 c-1 39 -36 28 -49 -17z"/>
 <path d="M340 445 c0 -37 3 -45 18 -45 11 0 24 10 30 23 l11 22 0 -22 c2 -44 21 -23 21 22 0 48 -13 58 -36 28 -13 -17 -13 -17 -14 0 0 9 -7 17 -15 17 -11 0 -15 -12 -15 -45z"/>
 <path d="M560 453 c-8 -21 -16 -41 -18 -45 -2 -5 3 -8 11 -8 9 0 18 6 21 13 5 10 7 10 12 0 3 -7 14 -13 25 -13 18 0 19 2 4 30 -8 16 -15 36 -15 45 0 29 -26 15 -40 -22z"/>
 <path d="M664 476 c-3 -8 -4 -27 -2 -43 3 -26 7 -28 43 -28 l40 0 0 40 c0 39 -1 40 -38 43 -26 2 -39 -1 -43 -12z m52 -42 c-5 -13 -10 -14 -18 -6 -6 6 -8 18 -4 28 5 13 10 14 18 6 6 -6 8 -18 4 -28z"/>
 <path d="M802 478 c-7 -7 -12 -27 -12 -45 0 -45 28 -45 32 0 2 17 8 32 13 32 6 0 11 -15 13 -32 4 -45 32 -45 32 0 0 38 -15 57 -45 57 -12 0 -26 -5 -33 -12z"/>
 <path d="M920 444 l0 -45 38 3 c34 3 37 6 38 33 0 17 4 36 8 43 10 16 -26 16 -42 0 -9 -9 -12 -9 -12 0 0 7 -7 12 -15 12 -11 0 -15 -12 -15 -46z m50 -9 c0 -8 -4 -15 -10 -15 -5 0 -10 7 -10 15 0 8 5 15 10 15 6 0 10 -7 10 -15z"/>
 <path d="M1120 469 c-9 -16 -9 -28 -1 -46 9 -20 17 -24 44 -21 30 3 42 23 14 23 -24 1 -40 16 -27 29 6 6 16 11 23 11 28 0 19 20 -10 23 -24 2 -34 -2 -43 -19z"/>
 <path d="M1234 476 c-3 -8 -4 -27 -2 -43 3 -24 8 -28 40 -31 32 -3 40 1 49 21 17 38 -3 67 -47 67 -21 0 -37 -6 -40 -14z m55 -43 c-15 -18 -34 -1 -25 22 5 14 9 15 21 5 12 -10 13 -16 4 -27z"/>
 <path d="M1377 484 c-4 -4 -7 -25 -7 -46 0 -27 4 -38 15 -38 10 0 15 11 15 35 0 19 5 35 10 35 6 0 10 -16 10 -35 0 -25 4 -35 16 -35 12 0 14 9 12 43 -3 39 -5 42 -33 45 -17 2 -34 0 -38 -4z"/>
 <path d="M1490 445 l0 -45 39 0 c31 0 41 4 46 20 4 12 2 27 -4 34 -7 9 -7 16 1 24 9 9 7 12 -8 12 -11 0 -25 -5 -32 -12 -9 -9 -12 -9 -12 0 0 7 -7 12 -15 12 -11 0 -15 -12 -15 -45z m52 -10 c0 -5 -5 -11 -11 -13 -6 -2 -11 4 -11 13 0 9 5 15 11 13 6 -2 11 -8 11 -13z"/>
 <path d="M1615 481 c-8 -13 10 -22 32 -16 11 4 9 1 -4 -6 -14 -7 -23 -21 -23 -36 0 -20 5 -23 35 -23 25 0 35 4 35 16 0 11 -6 14 -22 10 l-23 -6 23 11 c13 8 22 21 22 36 0 20 -5 23 -34 23 -19 0 -37 -4 -41 -9z"/>
 <path d="M1730 445 c0 -45 0 -45 35 -45 19 0 35 5 35 10 0 6 -9 10 -20 10 -11 0 -20 5 -20 10 0 6 9 10 20 10 27 0 25 18 -2 23 l-23 4 23 2 c36 2 25 21 -13 21 -35 0 -35 0 -35 -45z"/>
 <path d="M80 321 c-54 -28 -80 -74 -80 -141 0 -67 26 -113 80 -141 63 -34 171 -21 209 24 9 12 7 20 -11 42 l-24 27 -40 -21 c-32 -17 -47 -19 -67 -12 -58 22 -75 94 -32 136 28 29 63 32 107 9 30 -15 32 -15 56 9 29 29 24 40 -28 67 -50 25 -124 26 -170 1z"/>
 <path d="M374 331 c-41 -18 -64 -60 -64 -117 0 -45 5 -59 29 -86 28 -32 32 -33 106 -33 74 0 78 1 106 33 25 27 29 41 29 87 0 46 -5 60 -29 87 -26 29 -35 32 -92 35 -35 1 -74 -1 -85 -6z m112 -85 c13 -22 14 -29 2 -53 -18 -38 -66 -39 -87 -2 -13 24 -13 29 2 53 23 34 61 35 83 2z"/>
 <path d="M622 317 c-20 -21 -22 -34 -22 -125 l0 -102 40 0 40 0 0 74 c0 54 4 79 16 90 41 42 74 -1 74 -96 l0 -68 40 0 40 0 0 125 0 125 -40 0 c-30 0 -40 -4 -40 -16 0 -14 -2 -14 -22 0 -35 25 -100 21 -126 -7z"/>
 <path d="M910 215 l0 -125 40 0 c31 0 40 4 40 17 0 15 1 15 18 0 12 -11 36 -17 65 -17 37 0 49 5 66 26 18 23 21 41 21 125 l0 99 -40 0 -40 0 0 -66 c0 -77 -12 -104 -45 -104 -33 0 -45 27 -45 104 l0 66 -40 0 -40 0 0 -125z"/>
 <path d="M1222 325 c-33 -14 -33 -15 -17 -44 15 -30 15 -30 50 -15 19 7 44 14 55 14 36 0 21 -18 -30 -35 -54 -18 -70 -37 -70 -84 0 -50 41 -74 117 -69 76 5 92 16 74 54 -9 21 -16 25 -34 19 -45 -14 -77 -17 -77 -7 0 6 23 18 50 27 54 18 70 37 70 84 0 63 -102 93 -188 56z"/>
 <path d="M1464 306 c-31 -31 -34 -40 -34 -91 0 -51 3 -60 34 -91 31 -31 40 -34 91 -34 51 0 60 3 91 34 28 28 34 42 34 75 l0 41 -80 0 c-82 0 -103 12 -54 30 18 7 33 6 53 -5 26 -13 30 -13 50 9 l22 24 -27 21 c-20 16 -41 21 -86 21 -55 0 -63 -3 -94 -34z m126 -136 c-12 -22 -40 -26 -58 -8 -21 21 -13 28 28 28 38 0 40 -2 30 -20z"/>
 <path d="M1720 170 l0 -170 40 0 40 0 0 170 0 170 -40 0 -40 0 0 -170z"/>
 </g>
<g id="layer102" fill="#ffffff" stroke="none">
 <path d="M44 476 c-3 -8 -4 -27 -2 -43 3 -24 8 -28 40 -31 32 -3 40 1 49 21 17 38 -3 67 -47 67 -21 0 -37 -6 -40 -14z m55 -43 c-15 -18 -34 -1 -25 22 5 14 9 15 21 5 12 -10 13 -16 4 -27z"/>
 <path d="M182 451 c-15 -49 -15 -51 3 -51 8 0 15 7 15 15 0 8 5 15 10 15 6 0 10 -7 10 -15 0 -23 30 -18 40 8 l9 22 0 -22 c1 -16 7 -23 20 -23 19 0 19 2 4 45 -16 49 -38 58 -53 23 l-9 -23 0 23 c-1 39 -36 28 -49 -17z"/>
 <path d="M340 445 c0 -37 3 -45 18 -45 11 0 24 10 30 23 l11 22 0 -22 c2 -44 21 -23 21 22 0 48 -13 58 -36 28 -13 -17 -13 -17 -14 0 0 9 -7 17 -15 17 -11 0 -15 -12 -15 -45z"/>
 <path d="M560 453 c-8 -21 -16 -41 -18 -45 -2 -5 3 -8 11 -8 9 0 18 6 21 13 5 10 7 10 12 0 3 -7 14 -13 25 -13 18 0 19 2 4 30 -8 16 -15 36 -15 45 0 29 -26 15 -40 -22z"/>
 <path d="M664 476 c-3 -8 -4 -27 -2 -43 3 -26 7 -28 43 -28 l40 0 0 40 c0 39 -1 40 -38 43 -26 2 -39 -1 -43 -12z m52 -42 c-5 -13 -10 -14 -18 -6 -6 6 -8 18 -4 28 5 13 10 14 18 6 6 -6 8 -18 4 -28z"/>
 <path d="M802 478 c-7 -7 -12 -27 -12 -45 0 -45 28 -45 32 0 2 17 8 32 13 32 6 0 11 -15 13 -32 4 -45 32 -45 32 0 0 38 -15 57 -45 57 -12 0 -26 -5 -33 -12z"/>
 <path d="M920 444 l0 -45 38 3 c34 3 37 6 38 33 0 17 4 36 8 43 10 16 -26 16 -42 0 -9 -9 -12 -9 -12 0 0 7 -7 12 -15 12 -11 0 -15 -12 -15 -46z m50 -9 c0 -8 -4 -15 -10 -15 -5 0 -10 7 -10 15 0 8 5 15 10 15 6 0 10 -7 10 -15z"/>
 <path d="M1120 469 c-9 -16 -9 -28 -1 -46 9 -20 17 -24 44 -21 30 3 42 23 14 23 -24 1 -40 16 -27 29 6 6 16 11 23 11 28 0 19 20 -10 23 -24 2 -34 -2 -43 -19z"/>
 <path d="M1234 476 c-3 -8 -4 -27 -2 -43 3 -24 8 -28 40 -31 32 -3 40 1 49 21 17 38 -3 67 -47 67 -21 0 -37 -6 -40 -14z m55 -43 c-15 -18 -34 -1 -25 22 5 14 9 15 21 5 12 -10 13 -16 4 -27z"/>
 <path d="M1377 484 c-4 -4 -7 -25 -7 -46 0 -27 4 -38 15 -38 10 0 15 11 15 35 0 19 5 35 10 35 6 0 10 -16 10 -35 0 -25 4 -35 16 -35 12 0 14 9 12 43 -3 39 -5 42 -33 45 -17 2 -34 0 -38 -4z"/>
 <path d="M1490 445 l0 -45 39 0 c31 0 41 4 46 20 4 12 2 27 -4 34 -7 9 -7 16 1 24 9 9 7 12 -8 12 -11 0 -25 -5 -32 -12 -9 -9 -12 -9 -12 0 0 7 -7 12 -15 12 -11 0 -15 -12 -15 -45z m52 -10 c0 -5 -5 -11 -11 -13 -6 -2 -11 4 -11 13 0 9 5 15 11 13 6 -2 11 -8 11 -13z"/>
 <path d="M1615 481 c-8 -13 10 -22 32 -16 11 4 9 1 -4 -6 -14 -7 -23 -21 -23 -36 0 -20 5 -23 35 -23 25 0 35 4 35 16 0 11 -6 14 -22 10 l-23 -6 23 11 c13 8 22 21 22 36 0 20 -5 23 -34 23 -19 0 -37 -4 -41 -9z"/>
 <path d="M1730 445 c0 -45 0 -45 35 -45 19 0 35 5 35 10 0 6 -9 10 -20 10 -11 0 -20 5 -20 10 0 6 9 10 20 10 27 0 25 18 -2 23 l-23 4 23 2 c36 2 25 21 -13 21 -35 0 -35 0 -35 -45z"/>
 </g>

</svg>